<svg version="1.0" xmlns="http://www.w3.org/2000/svg" width="144" height="142.667" viewBox="0 0 108 107"><path d="M41.5 6.4C25 11.8 13.3 23.8 8.9 39.8c-9.2 33 18.8 64.9 52.8 60.1 24.9-3.5 43.1-26.5 41-51.7-.5-6.6-4.1-18.2-5.6-18.2-.4 0-1.5 1.5-2.3 3.4-1.5 3-1.5 3.9-.2 8.2 6.9 22.9-8.8 47-33.6 51.6-18.9 3.6-39.8-9.8-45.4-29.1-7-23.8 8.4-47.8 33.3-52.2 8.4-1.5 17.7.2 26 4.7 5.1 2.8 7.1 3.4 9.8 2.9 1.8-.3 3.3-1 3.3-1.5 0-1.3-8.2-6.7-14.8-9.8-4.9-2.3-7.2-2.7-16.7-2.9-7.1-.2-12.4.2-15 1.1z"/><path d="M41.2 27.5 24 39v14.3c0 7.8.3 15.2.6 16.4.6 2 1.9 1.3 18.6-9.9l18.1-12-.7-8.2c-.3-4.4-.6-11.6-.6-15.9 0-4.2-.3-7.7-.8-7.7-.4 0-8.5 5.2-18 11.5zM57 26.3c0 3 .3 8.7.6 12.8l.7 7.4-12.9 8.6c-7.1 4.7-14.1 9.4-15.6 10.3L27 67.2V40.3l14.3-9.6c7.8-5.3 14.5-9.6 15-9.6.4-.1.7 2.3.7 5.2z"/><path d="M49.6 36.1C47 38.1 46 42 48 42c2.4 0 6-3.4 6-5.6 0-2.9-1-3-4.4-.3zM35.8 41.1c-4.7 3-4.8 3.3-4.8 8.1v4.9l4.4-3.1c5.3-3.6 5.6-3.6 5.6-1 0 2.4.4 2.5 4.1.3 1.9-1.1 2.9-2.6 2.9-4 0-2.5-1.9-3-3.8-1.1-1.6 1.6-3 .1-3.4-3.9l-.3-3.3-4.7 3.1zM83.7 22.4c-6.5 1.8-12 3.6-12.3 3.8-.3.3 1.9 1.9 4.9 3.6 5 2.8 5.5 3.4 7.2 9.1 1 3.4 2.1 6.1 2.4 6.1.6 0 13.1-24.4 13.1-25.5 0-1-3.7-.3-15.3 2.9zM44.6 61.8C35 68.3 27 73.8 27 74.1c0 .3 6.4 3.3 14.1 6.6l14.2 6.2 18-12.1 18-12-11.4-5c-6.3-2.7-12.8-5.5-14.5-6.3-3.1-1.3-3.4-1.2-20.8 10.3z"/></svg>